Title:
Before My Heart Falls Aka Avant Que Mon Coeur Bascule

Country:
Canada/2012

Language:
French

Subtitle:
English

Director:
Sébastien Rose

Writers:
Stéfanie Lasnier (screenwriter), Sébastien Rose (screenwriter)

Stars:
Clémence Dufresne-Deslières, Étienne Laforge, Sophie Lorain

Synopsis:
A girl (16) regularly fakes distress along the highway so she can rob good Samaritans who pick her up. One day, a man dies by mistake by her side. A fragile friendship will then slowly develop between her and the unsuspecting widowed wife. 

Imdb: 
http://www.imdb.com/title/tt1590956

Trailer: 
http://www.cinoche.com/films/avant-que-mon-coeur-bascule/bandes-annonces/index.html

Media Info:

General
Complete name                            : Before.My.Heart.Falls.[Avant.Que.Mon.Coeur.Bascule].2012.DVDRip.AC3.HORiZON-ArtSubs
Format                                   : AVI
Format/Info                              : Audio Video Interleave
File size                                : 1.36 GiB
Duration                                 : 1h 35mn
Overall bit rate                         : 2 053 Kbps
Writing application                      : FairUse Wizard - http://fairusewizard.com
Writing library                          : The best and REALLY easy backup tool

Video
ID                                       : 0
Format                                   : MPEG-4 Visual
Format profile                           : Advanced Simple@L5
Format settings, BVOP                    : 1
Format settings, QPel                    : No
Format settings, GMC                     : No warppoints
Format settings, Matrix                  : Default (MPEG)
Muxing mode                              : Packed bitstream
Codec ID                                 : XVID
Codec ID/Hint                            : XviD
Duration                                 : 1h 35mn
Bit rate                                 : 1 596 Kbps
Width                                    : 688 pixels
Height                                   : 288 pixels
Display aspect ratio                     : 2.40:1
Frame rate                               : 23.976 fps
Color space                              : YUV
Chroma subsampling                       : 4:2:0
Bit depth                                : 8 bits
Scan type                                : Progressive
Compression mode                         : Lossy
Bits/(Pixel*Frame)                       : 0.336
Stream size                              : 1.06 GiB (78%)
Writing library                          : XviD 1.2.0.dev47 (UTC 2006-11-01)

Audio
ID                                       : 1
Format                                   : AC-3
Format/Info                              : Audio Coding 3
Mode extension                           : CM (complete main)
Format settings, Endianness              : Big
Codec ID                                 : 2000
Duration                                 : 1h 35mn
Bit rate mode                            : Constant
Bit rate                                 : 448 Kbps
Channel(s)                               : 6 channels
Channel positions                        : Front: L C R, Side: L R, LFE
Sampling rate                            : 48.0 KHz
Bit depth                                : 16 bits
Compression mode                         : Lossy
Stream size                              : 305 MiB (22%)
Alignment                                : Split accross interleaves
Interleave, duration                     : 42 ms (1.00 video frame)
Interleave, preload duration             : 500 ms

